<svg xmlns="http://www.w3.org/2000/svg" xmlns:se="http://svg-edit.googlecode.com" xmlns:xlink="http://www.w3.org/1999/xlink" xmlns:dc="http://purl.org/dc/elements/1.1/" xmlns:cc="http://creativecommons.org/ns#" xmlns:rdf="http://www.w3.org/1999/02/22-rdf-syntax-ns#" xmlns:inkscape="http://www.inkscape.org/namespaces/inkscape" width="246" height="478"><rect id="backgroundrect" width="100%" height="100%" x="0" y="0" fill="none" stroke="none"/>
    <title>my vector image</title> <!-- Created with Vector Paint - http://www.vectorpaint.yaks.com/ https://chrome.google.com/webstore/detail/hnbpdiengicdefcjecjbnjnoifekhgdo -->
    <g class="currentLayer" style="">
        <title>Layer 1</title>
        <path fill="#4a90d6" stroke="#222222" stroke-width="2" stroke-linejoin="round" stroke-dashoffset="" fill-rule="nonzero" marker-start="" marker-mid="" marker-end="" id="svg_2" d="M4.016200323222961,471.1854278656422 C-8.924402208296328,456.0789141090792 24.285515934260616,455.6745543102516 19.06808947488065,438.92869386511717 C28.607345492646232,416.73819678929465 53.41040722515061,403.30637316986315 57.06304934139581,378.0902559010787 C47.003442315980465,371.0819719390055 41.21783028584838,354.13273052573675 60.40986733578836,356.1449529987077 C74.48413460076051,345.55090242610424 72.72514545442698,323.87148410749995 76.95772760061254,307.961919797595 C80.92266359557476,282.2835352039267 81.8205505341985,256.2934172303113 83.52358589289918,230.40406091427593 C67.23879170390836,229.15321991756264 50.55117508406056,230.02450718785715 34.683680207471355,225.85172224916963 C35.140102331302444,208.6342261432291 67.4267189213167,215.2406165008869 68.89620246589521,198.9938881828799 C92.37160284702213,198.56967071472016 70.19649546493292,163.50643949657328 60.63643693711742,155.14093187863014 C48.399660669297305,141.02882294220183 40.24933652129931,118.75138450607244 49.55188591784395,101.32315689149978 C62.8575652942788,92.48260257761343 92.94279909670985,97.86391886593776 91.58294910391862,74.63110233559951 C82.53396933333312,69.47299265622902 71.04493040124339,72.74859528324541 60.90276991987395,71.8363916055783 C61.52649290776992,61.002911989319614 62.15019988142649,50.16944838730455 62.77392286936447,39.3359687710396 C76.18678561741825,38.3042667639244 89.59968039396483,37.27248468555313 103.01254314203646,36.24068659293265 C96.2043572269364,29.164854526640774 86.01514688067385,23.957436973187573 83.46542213886084,13.948306862052803 C92.13806704718684,-0.30831466148662834 113.03975334082054,0.9501811464729677 128.0134769408753,1.084973084159887 C142.57374464838665,0.08067145786406005 169.12075814694072,9.792705213035946 149.27421872163654,25.436112696943837 C147.6656354062594,29.27772295682483 132.01047346324367,38.82966226016143 141.6851459744396,37.788319674861874 C154.0724081444052,37.788319674861874 166.45963828588293,37.788319674861874 178.84686842737256,37.788319674861874 C178.8112687508243,48.37902326933687 178.52656742397704,59.074972511242585 181.0137885501336,69.43925063261825 C171.55820698578185,76.4810844473148 140.896300060354,63.42410636496814 149.62672438069637,85.15161547469302 C159.45711945363433,94.23568246584287 174.51273992539114,93.9959491514496 186.98125839713327,97.99661293695151 C194.25393761776468,98.72319544914629 200.03935747694658,100.61835375857615 197.41854548178515,109.11942199818856 C198.785505801329,124.90300220760625 194.80330644545177,140.78037787610347 183.9541488789588,152.76172686505905 C176.2742433088497,165.26393931765674 159.02529521695772,180.91527385504517 164.13155075661558,195.38671052082475 C173.79238695624457,193.81412723823496 181.55298832939485,200.15743550579404 173.83669838450174,207.29099894138432 C181.7554084425479,213.15415196742762 209.64020429813223,211.81146925006905 203.6090938237661,226.4900822610888 C189.48124288011826,231.16670751624332 174.30436251144698,229.21836588436116 159.6469043239486,229.69559051822475 C163.54962495977458,269.76303447845055 168.94583450010754,309.8342738157913 177.96254555802585,349.0706903288675 C183.23089733066894,357.7771893605344 204.15878293644676,364.46875951106347 186.98351640632075,375.8192271425971 C180.57371697500076,396.95673927377265 201.04695803862768,412.78368607072275 213.90502312844552,426.3502535850909 C228.04235450775582,436.9384909851439 221.1832112509137,458.2429356526736 241.18337537127337,461.6407430173119 C256.93438259729487,476.89870353099684 219.55837347232438,476.4924860792337 209.96250708272964,476.5257636895979 C146.43674994554976,477.21074118169423 82.8424678349138,478.1690658978029 19.341564812894774,476.12202844650193 C14.143259367389419,475.46597268892765 7.720904764502393,475.6160582348589 4.0162163374670286,471.18541185138963 L4.016200323222961,471.1854278656422 z" style="color: rgb(0, 0, 0);" class=""/>
    </g>
</svg>