<svg xmlns="http://www.w3.org/2000/svg" xmlns:se="http://svg-edit.googlecode.com" xmlns:xlink="http://www.w3.org/1999/xlink" xmlns:dc="http://purl.org/dc/elements/1.1/" xmlns:cc="http://creativecommons.org/ns#" xmlns:rdf="http://www.w3.org/1999/02/22-rdf-syntax-ns#" xmlns:inkscape="http://www.inkscape.org/namespaces/inkscape" width="294" height="479" style="">
    <title>my vector image</title> <!-- Created with Vector Paint - http://www.vectorpaint.yaks.com/ https://chrome.google.com/webstore/detail/hnbpdiengicdefcjecjbnjnoifekhgdo -->
    <rect id="backgroundrect" width="100%" height="100%" x="0" y="0" fill="none" stroke="none"/>
    <g class="currentLayer" style="">
        <title>Layer 1</title>
        <path fill="#e841e8" stroke="#222222" stroke-width="2" stroke-linejoin="round" stroke-dashoffset="" fill-rule="nonzero" marker-start="" marker-mid="" marker-end="" id="svg_5" d="M28.973559243584987,475.34125548970883 C12.196671597359114,477.894096943132 -11.906754107871109,461.95833921946405 9.33270279142971,447.4760477411148 C27.306632163255813,438.0580566762732 10.05901266589828,413.5335549175932 29.065875265012437,401.62119453677235 C48.39264961310266,375.2360617690812 68.96845334246825,348.26457852065386 78.59979344092352,316.6075780359096 C77.25590854906613,301.4413494175003 47.21680224053773,276.33635876630944 77.6494814556558,271.4173203276958 C102.74314822116719,274.3345066047844 93.56525867016148,236.76554338730074 102.23826902508137,220.48732197307453 C107.45345342725602,195.77929021401863 111.24438369536898,170.65930220225587 110.30862186504106,145.3524940343291 C92.83303929261507,144.8644968511631 74.99975609460944,146.8992026556053 57.86719621980808,142.74423102478298 C46.938800048678615,128.3995990254436 82.55778695889768,121.25732566180889 88.43521902757601,108.30941270637308 C100.7672499583947,89.69971663059184 70.38232591700785,69.13828736823471 83.38912627228405,47.139363490565344 C91.69705710852787,13.837636491206524 130.13129935315374,-7.75279697746106 162.65218933321415,4.445982644237105 C196.3283552264171,13.179142157740458 221.22205718426068,52.960271960653 205.21596040205702,86.05074220994152 C203.93808625702258,92.4346506376931 193.93679529275664,100.71204371738472 197.2770061621565,105.79597326417223 C211.8588967252424,115.91561400675494 228.74250680315544,124.73466894642152 237.98115243466697,140.36030553028445 C224.90059509205895,149.84467468943592 203.01326499320277,142.62172862265035 186.69273473111963,147.12706990088378 C171.8447887554193,160.29716420131604 186.51140881567682,187.22558793524604 187.27196186487544,205.29472419351964 C191.90387831088265,225.93981285384552 195.99306279772958,246.76693018133352 201.30113819997706,267.2239528983459 C212.45982930414067,271.5766213653648 235.37946973670387,276.6167886459302 222.80677828497988,294.6984626337605 C204.88314357601672,309.2491286601702 213.65679117159493,332.42564081806955 223.76876553175458,348.75388537747955 C236.3543460889057,373.9697830274189 257.9587227905949,393.23267085550526 271.1940452279475,417.8661310740656 C276.10909075906807,429.238842020296 258.5385408746257,449.3807125340583 280.4369552846716,444.6706628740543 C304.17725001012843,449.7136092182443 289.9710281564071,482.6314101755563 268.6379136187247,474.8540089731555 C190.0350219124212,477.6217007934092 111.2706889699744,478.74519316282624 32.66592858295667,475.6837830667887 L28.973527300339526,475.341223546454 L28.973527300339526,475.341223546454 L28.973559243584987,475.34125548970883 z" style="color: rgb(0, 0, 0);" class="" fill-opacity="1"/>
    </g>
</svg>