<svg xmlns="http://www.w3.org/2000/svg" xmlns:se="http://svg-edit.googlecode.com" xmlns:xlink="http://www.w3.org/1999/xlink" xmlns:dc="http://purl.org/dc/elements/1.1/" xmlns:cc="http://creativecommons.org/ns#" xmlns:rdf="http://www.w3.org/1999/02/22-rdf-syntax-ns#" xmlns:inkscape="http://www.inkscape.org/namespaces/inkscape" width="284" height="479"><rect id="backgroundrect" width="100%" height="100%" x="0" y="0" fill="none" stroke="none"/>
    <title>my vector image</title> <!-- Created with Vector Paint - http://www.vectorpaint.yaks.com/ https://chrome.google.com/webstore/detail/hnbpdiengicdefcjecjbnjnoifekhgdo -->
    <g class="currentLayer" style="">
        <title>Layer 1</title>
        <path fill="#41e841" stroke="#222222" stroke-width="2" stroke-linejoin="round" stroke-dashoffset="" fill-rule="nonzero" marker-start="" marker-mid="" marker-end="" id="svg_2" d="M0.9999982940361747,474.60685083479666 C1.6982454321971545,458.8847746788405 33.37490138120626,466.63554678257526 15.936200312988035,451.3184273985471 C21.753144581689583,432.42402981317207 39.81526973418545,419.84076076047893 50.73252146739361,403.6327588851146 C59.10170811192819,389.8345074821167 77.95412476247981,373.2060080465147 68.83813201824483,356.1453754656314 C52.096637767633524,347.2040285318305 56.847541576779804,327.32331104973736 77.32457078952098,331.68961635958556 C90.4921478743625,319.5450584789414 91.39884323782883,299.2587920424599 95.85453608902196,282.72305718871854 C99.89888620071684,262.9317752627671 102.37377674351194,242.7818868459509 101.72831386883081,222.5611606031663 C77.72575039764331,222.6197546566836 53.27203992279419,221.469688307759 30.12260331002517,214.9599705874196 C34.607025012942586,197.02719728976183 63.5112587461486,200.88108871888943 75.35388359769576,189.8645263868956 C64.34998116635796,179.96821321679863 97.60004990230067,180.95784613430982 88.89973723400738,165.3054074344657 C88.30272128637671,147.37935620795338 74.18024198495073,142.1921259615129 62.866356044084114,129.12201890832267 C47.751763060798794,108.69761390973161 71.44776807771007,88.28990205448437 84.60846304210969,74.48175960393607 C99.27803891037291,59.4743836554926 116.05570430574147,43.48475306287878 120.54575974445686,22.258613040325642 C114.50468241775798,17.294603570820385 100.70492655119011,10.187069656308111 114.78612913477355,3.401154836403961 C134.01759057346186,0.14090231438765988 154.53436003061728,-0.2563080707847263 173.3820712313813,5.092139848709621 C185.8922297578663,17.28125545811102 154.28746796028827,17.94600427501028 167.885705736741,33.31467554277977 C184.00864140222444,52.635444498171665 162.27125585891804,62.60648469253627 149.43675739951613,73.77464573386575 C141.966247647869,83.21148933600034 119.6689455877534,95.65641176247681 123.50518357765003,105.4379375652355 C145.3353977225089,104.67683906186085 158.05518883927465,83.54357565568975 173.62646653245122,71.03207271496731 C190.70534473502602,49.12599519570807 207.22795554508792,84.52570226040916 218.14933655058076,96.5553607391943 C231.60375401432918,114.78648196134466 222.3214060141097,139.2899037528274 202.05548184531733,147.1195321531123 C192.00436897960662,157.4703853723237 185.33077676762366,186.95442975201092 209.38052277629134,182.56496530655818 C223.34700201225553,187.64166549740207 195.72865247500084,188.18863402481702 211.5829293635535,192.8817440270227 C222.11894363306078,196.9275825973084 263.21197287705854,206.17470374372567 240.57458203160365,218.57718109237646 C221.36112614062142,222.92040729128382 201.51417906358398,222.7411840705056 181.9962133495613,220.98726766830384 C180.79257849554511,250.6360348009996 185.02889175329096,280.16780588584277 193.76697605949965,308.5275198461481 C195.93585231571228,316.5959738313946 198.10474457683716,324.6643958067811 200.2736368379638,332.7327537624452 C210.71091668622506,332.52629014858667 232.26066041487786,330.2442430231159 222.30155989929062,347.43025823585197 C201.35120084806852,358.98466628441645 214.1728153377838,383.30055829577617 225.78644163219622,397.13272414821637 C240.18201307648997,415.3334039910201 261.6508198675234,432.37218984067226 262.5703831957694,457.29076354532174 C268.32790115454304,460.7222848372552 287.48919697437975,470.1493654312902 281.9466732578502,477.5297194048617 C190.22626912620848,477.0596545723763 98.4531767606681,478.88849005803604 6.779491023512662,475.5283667646513 L3.596094181621993,475.2363407880255 L1.0000142990008953,474.60675480520604 L1.0000142990008953,474.60675480520604 L0.9999982940361747,474.60685083479666 z" style="color: rgb(0, 0, 0);" class="" fill-opacity="1"/>
    </g>
</svg>