<svg xmlns="http://www.w3.org/2000/svg" xmlns:se="http://svg-edit.googlecode.com" xmlns:xlink="http://www.w3.org/1999/xlink" xmlns:dc="http://purl.org/dc/elements/1.1/" xmlns:cc="http://creativecommons.org/ns#" xmlns:rdf="http://www.w3.org/1999/02/22-rdf-syntax-ns#" xmlns:inkscape="http://www.inkscape.org/namespaces/inkscape" width="295" height="478" style="">                                    <title>my vector image</title>                                    <!-- Created with Vector Paint - http://www.vectorpaint.yaks.com/ https://chrome.google.com/webstore/detail/hnbpdiengicdefcjecjbnjnoifekhgdo -->                                    <rect id="backgroundrect" width="100%" height="100%" x="0" y="0" fill="none" stroke="none"/>                                <g class="currentLayer" style=""><title>Layer 1</title><path fill="#41e8e8" stroke="#222222" stroke-width="2" stroke-linejoin="round" stroke-dashoffset="" fill-rule="nonzero" marker-start="" marker-mid="" marker-end="" id="svg_8" d="M20.264605820809606,476.81348475433833 C-4.6453534998708506,481.4041670322018 -5.1257002457680585,445.19445591013175 17.24312647241493,444.0389168217403 C10.537967267643381,428.50360352585534 15.670124947602346,409.4436566030967 25.580181390367898,395.0657976537732 C39.79206725984119,371.0447096440232 61.166045049033414,347.16839919049994 56.74998643371845,317.0964360835533 C55.22119545137525,301.4516498234905 35.836181337789185,273.40178435832104 65.88840132526212,277.41871913412604 C74.01367657242798,261.817377313268 69.28825588316369,238.84827676752343 75.38217640746063,220.9283553420845 C80.70378504017435,186.95829922801295 92.54850758984759,150.71052235006124 79.94922120755359,117.03179296224812 C72.0056081966523,99.10429030660544 51.82067055308795,87.30396982524744 53.987178659937456,65.38792609599089 C51.705675261232784,44.01629449802063 52.460606184976996,22.481690391329067 54.95206975928403,1.1726398536497413 C64.65186277727486,1.986225558499342 75.4459545040981,-0.8695679987855269 84.28991441441434,3.5268113389963958 C84.22363052170158,24.213291252060387 103.87328543113426,19.630509414100217 101.51686351747901,2.05068995599239 C106.68616124523106,0.003741839609929798 115.24315164161163,1.756809552194511 121.71677209561722,1.1726398536497413 C150.49761179708622,1.1726398536497413 179.27861110342064,1.1726398536497413 208.05945080486873,1.1726398536497413 C204.76662725704284,13.165890673418389 213.67674337619025,28.62384350021486 224.95952918238686,14.503985785201294 C221.87310662195483,-4.253845123691683 247.7177598049787,1.9537140512803504 241.52418201457255,18.09021092232679 C241.88895889116048,39.46951951341315 244.5094470233078,61.58896365900128 238.5044423590037,82.40702180749506 C228.72406485402018,90.72019984040818 228.5698546513491,107.08185126836773 216.3171821141276,116.88538743658648 C206.4710314519367,135.26637534248295 210.81009668934706,157.4777838006077 211.90506573852406,177.44393512062354 C216.07520520643368,206.99258585698414 222.9605104014268,236.17326761982247 224.6769807227193,266.06178091624406 C223.4492523622531,282.31156530732056 256.90036927854476,277.52897416206343 242.47681546168553,297.530190666838 C226.7132512748554,310.9553682876183 235.94035857960324,333.627508056031 242.18293505786409,349.659862764769 C254.50308852416788,377.3705040892535 280.4724409737273,402.26175772192266 276.55272150989083,434.76156591133633 C273.44452884842644,448.9601088156609 299.1626313486853,444.1594344412963 292.4774227497088,462.44298358843696 C292.283486900737,484.9771290065901 258.7980549424929,470.4908824060417 243.96511469445636,475.22402796985534 C169.40634908831964,476.1282851879844 94.8243769375141,477.524636068719 20.2645579393851,476.81345283336736 L20.264605820809606,476.81348475433833 z" style="color: rgb(0, 0, 0);" class="" fill-opacity="1"/></g></svg>