<svg xmlns="http://www.w3.org/2000/svg" xmlns:se="http://svg-edit.googlecode.com" xmlns:xlink="http://www.w3.org/1999/xlink" xmlns:dc="http://purl.org/dc/elements/1.1/" xmlns:cc="http://creativecommons.org/ns#" xmlns:rdf="http://www.w3.org/1999/02/22-rdf-syntax-ns#" xmlns:inkscape="http://www.inkscape.org/namespaces/inkscape" width="313" height="478"><rect id="backgroundrect" width="100%" height="100%" x="0" y="0" fill="none" stroke="none"/>
    <title>my vector image</title> <!-- Created with Vector Paint - http://www.vectorpaint.yaks.com/ https://chrome.google.com/webstore/detail/hnbpdiengicdefcjecjbnjnoifekhgdo -->
    <g class="currentLayer" style="">
        <title>Layer 1</title>
        <path fill="#e84141" stroke="#222222" stroke-width="2" stroke-linejoin="round" stroke-dashoffset="" fill-rule="nonzero" marker-start="" marker-mid="" marker-end="" id="svg_4" d="M77.17008398984444,475.74711498844727 C61.19081192084997,476.29052357825367 37.803930599719195,468.0341259317843 54.142291369189934,449.6165591287788 C71.93029885774257,442.6049216571463 50.9807571627893,419.36496775446335 68.80741468078907,408.417617520701 C83.11634645225246,388.0427323594939 102.56280314606659,369.43637257892306 108.4313198325537,344.55489079771417 C107.51995595804175,327.6802688285435 87.37743260908854,317.69364562470446 96.98718618866997,299.01590745363376 C87.55923738118463,269.12684316793855 89.73809299644068,234.7243214044574 106.9481329108217,207.85654966140132 C121.56179182979054,182.90182702944955 139.30455904495852,156.4603994953397 137.43332773754645,126.26173701229199 C119.10496800423635,133.9153979553502 99.70421321922947,140.62114623163046 79.5329888805403,137.1453178811192 C60.5691481642894,135.38409907524445 43.561368247626945,150.73995635668783 24.217474214396134,142.39035610619788 C4.608999398700462,138.31648699901956 -7.054363324999429,112.09820448679238 7.565806245563493,96.77197146599377 C23.542833811179776,83.12467471303836 47.01715525254451,82.68546838555399 62.25446773600663,67.45473022752316 C82.35840472933415,50.801056532266216 100.95354199311646,28.27614409325926 128.66177677406222,25.332008343394236 C140.9082009802646,22.528273441934697 146.1608482309207,10.222250508250447 152.93978960254321,1.0000000865964518 C158.57323833794516,15.626664390277625 168.37127550424356,28.560479688980546 183.11802869686653,35.044818055907896 C213.105612353394,52.414727099605415 220.5703529711903,89.13680777756807 231.6289414281552,119.32423182535582 C239.80552389844877,142.96599958467232 246.6176393480992,167.64972629334804 260.3097624943661,188.7559534248986 C260.4553368434113,198.8855562682329 245.08625131878495,203.16706581380882 255.46696792442071,215.04214410257708 C260.86576258883906,247.24917545639784 261.0981562380267,280.22938250273455 260.61955171328333,312.81280592691985 C251.51411097706682,328.75818758703974 243.22022534896638,346.5555232952032 255.36657017489011,364.8549591802912 C263.4800359372554,387.22192862406735 283.6863127326744,401.8915727793034 293.62760015234574,422.99818195397813 C299.2471998244971,433.9271622808143 282.67209966526,449.79403407876305 303.3233930273457,447.0454725719271 C322.1828722966367,457.0233247023582 306.95441047889324,481.3787490190218 288.19715958243,474.2933135504237 C217.90386706235415,476.0807819026751 147.45575156590002,477.86568738229687 77.17006807137807,475.74714682537615 L77.17008398984444,475.74711498844727 z" style="color: rgb(0, 0, 0);" class="" fill-opacity="1"/>
    </g>
</svg>