<svg xmlns="http://www.w3.org/2000/svg" xmlns:se="http://svg-edit.googlecode.com" xmlns:xlink="http://www.w3.org/1999/xlink" xmlns:dc="http://purl.org/dc/elements/1.1/" xmlns:cc="http://creativecommons.org/ns#" xmlns:rdf="http://www.w3.org/1999/02/22-rdf-syntax-ns#" xmlns:inkscape="http://www.inkscape.org/namespaces/inkscape" width="334" height="479" style="">                                    <title>my vector image</title>                                    <!-- Created with Vector Paint - http://www.vectorpaint.yaks.com/ https://chrome.google.com/webstore/detail/hnbpdiengicdefcjecjbnjnoifekhgdo -->                                    <rect id="backgroundrect" width="100%" height="100%" x="0" y="0" fill="none" stroke="none"/>                                <g class="currentLayer" style=""><title>Layer 1</title><path fill="#000000" stroke="#222222" stroke-width="2" stroke-linejoin="round" stroke-dashoffset="" fill-rule="nonzero" marker-start="" marker-mid="" marker-end="" id="svg_13" d="M22.006393413653626,477.77245380509237 C4.079634886149904,481.79953397607596 -9.742323135937312,454.8521197123232 12.485628402234397,451.9207055224073 C32.045315358834756,452.2905382707934 7.621255479976213,432.76718705314966 25.27625730083875,426.19070680878826 C45.58421685250312,406.3713483450102 65.72719900626686,385.70339730817983 78.74204521948218,360.1931921491568 C72.18452623633988,351.4982277298552 61.36205381279524,343.1908552114594 62.77616640237045,331.29313662662736 C75.54095797800642,326.94693666625716 94.55681095902332,329.89267999186836 95.3129373309153,309.74330261982556 C106.92112402848011,273.37574785685524 110.01729122267204,234.92428156513557 112.56186683313592,197.04384896184712 C99.75131498635722,186.8884987820984 73.37126397247289,196.50897470309422 55.46829116909794,191.33628494161871 C28.308840958901726,184.00406300015476 65.59602490499293,169.96614214320795 77.55623711408595,171.12274702126712 C88.30297668956933,171.13887130595464 104.21618711752336,164.51560499101848 86.22879422722036,159.4536374548159 C101.40238724275213,158.75341715149384 123.22644628604849,139.5063585973094 98.27369900121607,132.56850844980815 C116.77315814121255,119.28672999287664 102.51820056561985,90.38364515642076 94.79396296322142,73.76173555178349 C83.14953669541325,53.68996631737326 64.00161203862496,39.153154322075125 42.35902332457752,31.401492613221052 C38.85502071898284,10.933588492077376 72.2261512535623,16.983160451332893 85.76170287099353,15.92097720457302 C106.25730357657591,16.70274856205738 127.15654032716662,15.676035535989953 145.01335215649004,4.516860479811683 C169.14012253992848,-6.646145296094403 189.6508537870031,11.984375748364101 211.7213130574362,15.922644128635625 C234.0453852072181,17.360350104952843 257.2673524148219,11.906366907832606 279.0042505633566,18.231141618659308 C285.73940915603214,23.02212179779022 296.9363143972522,30.58936400404764 283.4513635420165,34.22099849728254 C257.69756307614597,48.55660955254578 233.64658965322417,69.7343829028344 227.19064084112853,99.8177461446659 C217.45099587773132,116.55233340472134 234.71664270492954,131.07334167765788 218.9300543933125,143.07453777933623 C218.76578223251573,157.19468287131886 255.56446125942142,159.16784011857152 234.9645014906214,166.12101314495675 C249.08230647768056,173.77511171177156 279.3602029633074,168.94728289397403 282.44979862993847,185.94715150179996 C269.6335247457497,196.0293173039317 251.66107005954484,192.0504657339726 236.3047404935989,192.9917008174557 C231.09736588913142,194.76610942641213 218.01159526264905,188.66210598525578 220.0036336305373,197.63571920106438 C218.98328376652063,237.84665589763614 229.42693166861312,277.3839469071987 239.52684059514922,315.9748417799308 C239.5397272004082,334.88173562842667 286.16059598805754,324.16163478171256 260.2469791776406,345.6203970334541 C241.10544973914324,362.09964037764956 269.1695909283733,385.1850320088979 278.89203772330615,399.84328903906635 C292.1168201997729,415.9230315921764 315.59179121832176,424.06210889265685 313.63246623517625,447.66509647361966 C327.1035848263123,448.63490968791734 343.12686032677504,469.60910993699827 324.5016285606,474.8351733247192 C223.70048652775262,476.9500191173395 122.82359561872101,478.40588494907877 22.006345329295613,477.77245380509237 L22.006393413653626,477.77245380509237 z" style="color: rgb(0, 0, 0);" class="" fill-opacity="1"/></g></svg>