<?xml version="1.0" encoding="UTF-8"?>
<svg viewBox="0 0 344.52301 403.75677" xmlns="http://www.w3.org/2000/svg">
 <defs>
  <linearGradient id="c" x1="121.87" x2="122.01" y1="121.23" y2="349.41" gradientUnits="userSpaceOnUse">
   <stop stop-color="#ef8900" offset="0"/>
   <stop stop-color="#5d2500" offset="1"/>
  </linearGradient>
  <linearGradient id="b" x1="113.13" x2="160.42" y1="186.8" y2="117.64" gradientUnits="userSpaceOnUse">
   <stop stop-color="#ff7f2a" offset="0"/>
   <stop stop-color="#813300" stop-opacity="0" offset="1"/>
  </linearGradient>
  <radialGradient id="a" cx="126.23" cy="45.06" r="117.84" gradientTransform="matrix(1.7551 6.3148e-8 -1.0548e-8 1.7657 -95.321 -16.223)" gradientUnits="userSpaceOnUse">
   <stop stop-color="#fff" offset="0"/>
   <stop stop-color="#c5c5c5" offset="1"/>
  </radialGradient>
 </defs>
 <g transform="translate(-206.15 -216.44)">
  <path transform="translate(206.15 216.44)" d="m64.875 69.156c-19.529-0.02425-34.948 0.15039-36.5 0.59375-4.1381 1.1823-7.6875 5.3125-7.6875 5.3125s1.7864 15.961 2.9688 21.281 8.2786 115.88 7.6875 124.16 2.3386 106.4 1.1562 111.72c-1.1084 4.9878-2.2095 10.493-2.3438 10.188-0.0328 0.38413-1.7649 20.603-0.59375 23.531 1.1823 2.9558 68.575 14.182 99.906 13s94.578-8.2708 98.125-13-3.5521-28.982-1.1875-31.938 6.4973-4.7265 13-6.5 33.719-12.992 40.812-18.312 23.047-33.112 26.594-44.344 12.409-37.266 13-47.906 0.58336-52.008-1.7812-60.875-12.406-28.359-19.5-31.906-58.531-7.0938-58.531-7.0938-3.5312-2.3906-3.5312-5.9375-69.164-38.414-85.125-40.188c-9.9757-1.1084-53.921-1.7408-86.469-1.7812zm173.94 71.531c-0.59115 0 44.937 1.2005 52.031 4.1562s6.5026 21.859 7.0938 32.5-0.59375 38.414-0.59375 47.281-17.148 47.904-22.469 54.406-12.398 11.807-17.719 17.719-23.646 4.7448-28.375 3.5625-3.5651-11.841-4.1562-18.344 4.1588-108.18 4.75-114.09 1.1614-20.094 9.4375-27.188z" fill="url(#c)" stroke="#000"/>
  <path transform="translate(206.15 216.44)" d="m31.331 128.28s5.3204-27.193 11.823-30.74 41.972-6.5027 49.066-4.7292 24.828 15.37 28.966 20.099 11.823 34.878 13.596 43.154 4.1381 40.198 5.3204 43.154 8.8673 18.917 17.143 18.917 26.011-15.961 29.558-22.464 4.1381-13.596 14.779-26.602 8.2761-37.834 12.414-43.154 1.1823-8.8673 5.9115-5.9115 7.0938 7.685 10.641 3.5469-15.37-34.287-15.37-34.287l-177.35-15.37-14.188 11.232s5.9115 7.0938 6.5027 10.641 1.7735 33.105 1.1823 32.513z" fill="url(#b)"/>
  <path transform="translate(206.15 216.44)" d="m23.646 103.45s2.3646-17.143 4.7292-18.917 62.071-7.0938 66.8-6.5027 19.508 8.2761 30.74 8.2761 16.552 2.3646 20.69 4.7292 8.8673 10.05 13.005 11.232 13.596 7.0938 12.414 11.232-1.7734 21.873-1.1823 25.42 2.9558 10.05 2.9558 10.05 0 4.7292 2.9558 5.9115 8.8673 1.1823 8.8673-3.5469-2.9558-5.9115-4.1381-11.823-2.9558-9.4584 1.1823-17.735 4.1381-10.641 8.2761-13.005 4.7292-6.5027 7.685-1.1823-0.59115 7.685 5.3204 6.5027 4.1381-7.0938 11.232-5.9115 5.9115 1.7735 7.685 7.0938 0 11.232 5.9115 6.5027 8.8673-10.05 11.823-15.961 5.3204-34.878-1.1823-44.928-49.066-33.696-59.115-34.287-81.579-7.685-89.264-5.3204-30.149 4.1381-35.469 7.0938-5.3204 9.4584-9.4584 10.05-10.641 0-12.414 4.7292 0.59115 1.7735-6.5027 6.5027-11.232 1.1823-11.823 9.4584 4.1381 7.685-1.1823 10.641-6.5027 2.9558-4.1381 10.05 10.05 24.828 10.05 24.828l3.5469-1.1823z" fill="url(#a)" stroke="#000"/>
  <path transform="translate(206.15 216.44)" d="m26.602 95.175 2.3646 18.326s10.641 162.57 9.4584 173.21-4.7292 39.016-1.1823 43.745 3.5469 9.4584 5.9115 10.05 21.281 7.0938 35.469 6.5027 87.49 0 99.314-1.7735 27.193-4.1381 34.287-7.0938 7.685-4.7292 10.05-1.7735 5.9115 12.414 3.5469 14.188-28.375 13.005-38.425 11.232-58.524-4.7292-73.894-4.7292-34.287 2.9558-46.701 0-23.646-2.3646-26.602-4.1381-8.2761-10.05-7.685-12.414 2.3646-11.823 2.3646-11.823-1.1823-73.894-1.1823-77.441-2.9558-77.441-2.9558-77.441l-5.3204-71.529 1.1823-7.0938z" fill="#fff" stroke="#000"/>
  <path transform="translate(206.15 216.44)" d="m222.27 125.32s0 34.878 0.59115 46.701-2.3646 78.032-4.1381 85.717-1.1823 11.823 0 18.326 0 8.2761 0 8.2761 3.5469-21.873 4.1381-27.193 3.5469-80.397 4.1381-85.126 4.7292-20.69 5.9115-26.602 2.9558-8.8673 0-13.005-1.1823-2.3646-4.7292-4.7292-5.9115 0-5.9115-2.3646z" fill="#803300"/>
  <path transform="translate(206.15 216.44)" d="m36.651 109.95c1.7735 7.685 4.1381 108.18 4.7292 115.27s3.5469 37.243 2.3646 46.11-1.7735 10.641-2.9558 13.596-1.7735-11.232-1.7735-11.232-7.685-103.45-6.5027-107.59-2.3646-40.198-0.59115-44.928 4.1381-12.414 4.7292-11.232z" fill="#803300"/>
  <path transform="translate(206.15 216.44)" d="m44.928 316.86c2.9558 7.0938 4.1381 11.823 10.05 12.414s54.386 3.5469 66.209 3.5469 69.756 0 78.032-5.9115 11.232-3.5469 14.188-14.188 4.7292-23.646 2.3646-27.784 5.9115 10.05 5.9115 18.326-4.1381 13.596-9.4584 21.873-13.005 12.414-24.237 12.414-24.237 1.7734-32.513 0.59115-14.188-2.3646-25.42 0.59115-53.204-0.59115-64.436-2.3646-20.099 1.7735-23.055-5.9115-2.3646-17.143 0-23.055 5.9115-15.37 5.9115-15.37l-3.5469 24.828z" fill-opacity=".4382"/>
  <path transform="translate(206.15 216.44)" d="m44.928 107c1.7735 7.685 9.4584 33.696 8.8673 42.563s-1.1823 36.651-2.3646 49.657-4.7292 31.922-2.9558 49.066 4.1381 23.055 1.1823 29.558-7.0938 15.961-7.0938 15.961 16.552-21.873 17.735-27.193-4.1381-30.74-2.9558-43.745 2.9558-42.563 5.3204-56.751 3.5469-26.602 0.59115-39.607-17.735-21.281-18.326-19.508z" fill="#fff" fill-opacity=".71536"/>
  <path transform="translate(206.15 216.44)" d="m236.82 113.44c0-3.5469 2.5886 27.249 1.9975 27.249-0.0368-0.92399 45.677 0.8309 52.77 3.7867s6.5026 22.598 7.0938 33.239-0.59375 37.86-0.59375 46.727-16.964 47.719-22.284 54.221-12.953 12.546-18.273 18.458-24.57 4.9296-29.299 3.7473 4.4919 27.852 10.995 26.079 33.719-13.177 40.812-18.497 22.492-32.742 26.039-43.974 12.594-36.896 13.185-47.537 0.76816-52.008-1.5964-60.875-12.776-28.175-19.87-31.721-57.349-6.6874-57.349-6.6874-3.6283-2.1457-3.6283-4.2148z" fill="#ececec"/>
  <path transform="translate(206.15 216.44)" d="m236.17 113.8s2.069 5.1726 2.5124 7.685 1.3301 10.789 1.0345 13.449 0.59115 5.3204-0.44336 5.4682-1.1823-2.2168-1.1823-3.9903-0.29557-9.1629-0.88672-11.675-0.73894-4.2858-1.1823-6.0593 0.59115-5.1726 0.14779-4.877z" stroke="#000"/>
 </g>
</svg>
