<?xml version="1.0" encoding="UTF-8"?>
<svg version="1.1" viewBox="0 0 3000 2000" xmlns="http://www.w3.org/2000/svg">
 <defs>
  <clipPath id="a">
   <path d="m1115.5-499.74l124.8-138.24 101.82 130.11-224.86 16.263z" fill="none" stroke="#000" stroke-width="1px"/>
  </clipPath>
  <clipPath id="g">
   <path d="m791.61-251.17l26.87-46.669-8.4853-28.284 20.86-16.264-8.8388-29.345 20.86-20.152 26.516 4.2426 23.688-22.981 25.102 10.607 70.711-43.487s33.111-254.72 25.111-262.72-624-32-624-32l-110 602s-86 642 66 294 340-126 346-116-96 48 130 188-30.394-480.95-30.394-480.95z" fill="none" stroke="#000" stroke-width="1px"/>
  </clipPath>
  <clipPath id="h">
   <path d="m1007.2-510.01l26.87-46.669-8.4853-28.284 20.86-16.264-8.8389-29.345 20.86-20.152 26.516 4.2426 23.688-22.981 25.102 10.607 70.711-43.487s33.111-254.72 25.111-262.72-624-32-624-32l-110 602s-86 642 66 294 340-126 346-116-96 48 130 188-30.394-480.95-30.394-480.95z" fill="none" stroke="#000" stroke-width="1px"/>
  </clipPath>
  <clipPath id="i">
   <path d="m1136.6-510.01l26.87-46.669-8.4853-28.284 20.86-16.264-8.8389-29.345 20.86-20.152 26.516 4.2426 23.688-22.981 25.102 10.607 70.711-43.487s33.111-254.72 25.111-262.72-624-32-624-32l-110 602s-86 642 66 294 340-126 346-116-96 48 130 188-30.394-480.95-30.394-480.95z" fill="none" stroke="#000" stroke-width="1px"/>
  </clipPath>
  <clipPath id="j">
   <path d="m791.61-380.59l26.87-46.669-8.4853-28.284 20.86-16.264-8.8388-29.345 20.86-20.152 26.516 4.2426 23.688-22.981 25.102 10.607 70.711-43.487s33.111-254.72 25.111-262.72-624-32-624-32l-110 602s-86 642 66 294 340-126 346-116-96 48 130 188-30.394-480.95-30.394-480.95z" fill="none" stroke="#000" stroke-width="1px"/>
  </clipPath>
  <clipPath id="b">
   <path d="m791.61-380.59l26.87-46.669-8.4853-28.284 20.86-16.264-8.8388-29.345 20.86-20.152 26.516 4.2426 23.688-22.981 25.102 10.607 70.711-43.487s33.111-254.72 25.111-262.72-624-32-624-32l-110 602s-86 642 66 294 340-126 346-116-96 48 130 188-30.394-480.95-30.394-480.95z" fill="none" stroke="#000" stroke-width="1px"/>
  </clipPath>
 </defs>
 <g transform="translate(0 947.64)">
  <g transform="matrix(4.0924 0 0 4.0924 -1486.2 2485.2)">
   <path transform="translate(0 -1947.6)" d="m757.93 1547l-10.168-8.587 5.9807-14.491 3.1797 13.082z" fill="#542b1a"/>
   <path d="m725.85-384.13l-6.0381 5.0689 1.375 7 10.625-3.625z" fill="#542b1a"/>
   <path d="m741.31-410.93l-4.25 9.125 15.375 14.125 5.5-13-1-10z" fill="#542b1a"/>
   <path d="m795.56-385.18l-24.625 2.75-5.1875 19.812 30.938 6.625z" fill="#542b1a"/>
   <rect transform="matrix(.96871 .2482 -.94625 .78985 -555.51 -275.26)" x="562.73" y="-777.21" width="369.83" height="369.73" ry="1.4613e-16" clip-path="url(#b)" fill="#542b1a"/>
   <rect transform="matrix(.96871 .2482 -.94625 .78985 -554.8 -310.62)" x="562.73" y="-777.21" width="369.83" height="369.73" ry="1.4613e-16" clip-path="url(#b)" fill="#9c4f32"/>
   <g transform="matrix(.96871 .2482 -.94625 .78985 -554.8 -310.62)" clip-path="url(#j)">
    <g transform="translate(-86.157)">
     <g transform="translate(-258.09 -54.447)">
      <path transform="translate(0 -1947.6)" d="m1129.4 1402.1l36.42 45.084h92.97l-45.093-45.093z" fill="#67422f"/>
      <rect x="1129.4" y="-629.86" width="84.322" height="84.322" ry="1.3878e-16" fill="#8c462d"/>
      <path d="m1135.4-551.5h72.312v-72.344h-72.312v72.344z" clip-path="url(#a)" fill="#d89b86"/>
      <path d="m1258.8-500.46v-92.938l-45.074-36.464v84.328z" fill="#542b1a"/>
     </g>
     <path d="m871.33-599.98l36.42 45.084h92.97l-45.093-45.093z" fill="#67422f"/>
     <rect x="871.3" y="-684.3" width="84.322" height="84.322" ry="1.3878e-16" fill="#8c462d"/>
     <path transform="translate(-258.09 -54.447)" d="m1135.4-551.5h72.312v-72.344h-72.312v72.344z" clip-path="url(#a)" fill="#d89b86"/>
     <path d="m1000.7-554.89v-92.938l-45.074-36.464v84.328z" fill="#542b1a"/>
    </g>
    <g transform="translate(-345)">
     <g transform="translate(-258.09 -54.447)">
      <path transform="translate(0 -1947.6)" d="m1129.4 1402.1l36.42 45.084h92.97l-45.093-45.093z" fill="#67422f"/>
      <rect x="1129.4" y="-629.86" width="84.322" height="84.322" ry="1.3878e-16" fill="#8c462d"/>
      <path d="m1135.4-551.5h72.312v-72.344h-72.312v72.344z" clip-path="url(#a)" fill="#d89b86"/>
      <path d="m1258.8-500.46v-92.938l-45.074-36.464v84.328z" fill="#542b1a"/>
     </g>
     <path d="m871.33-599.98l36.42 45.084h92.97l-45.093-45.093z" fill="#67422f"/>
     <rect x="871.3" y="-684.3" width="84.322" height="84.322" ry="1.3878e-16" fill="#8c462d"/>
     <path transform="translate(-258.09 -54.447)" d="m1135.4-551.5h72.312v-72.344h-72.312v72.344z" clip-path="url(#a)" fill="#d89b86"/>
     <path d="m1000.7-554.89v-92.938l-45.074-36.464v84.328z" fill="#542b1a"/>
    </g>
    <g transform="translate(-215.58)">
     <g transform="translate(-258.09 -54.447)">
      <path transform="translate(0 -1947.6)" d="m1129.4 1402.1l36.42 45.084h92.97l-45.093-45.093z" fill="#67422f"/>
      <rect x="1129.4" y="-629.86" width="84.322" height="84.322" ry="1.3878e-16" fill="#8c462d"/>
      <path d="m1135.4-551.5h72.312v-72.344h-72.312v72.344z" clip-path="url(#a)" fill="#d89b86"/>
      <path d="m1258.8-500.46v-92.938l-45.074-36.464v84.328z" fill="#542b1a"/>
     </g>
     <path d="m871.33-599.98l36.42 45.084h92.97l-45.093-45.093z" fill="#67422f"/>
     <rect x="871.3" y="-684.3" width="84.322" height="84.322" ry="1.3878e-16" fill="#8c462d"/>
     <path transform="translate(-258.09 -54.447)" d="m1135.4-551.5h72.312v-72.344h-72.312v72.344z" clip-path="url(#a)" fill="#d89b86"/>
     <path d="m1000.7-554.89v-92.938l-45.074-36.464v84.328z" fill="#542b1a"/>
    </g>
   </g>
   <g transform="matrix(.96871 .2482 -.94625 .78985 -1011.5 -294.03)" clip-path="url(#i)">
    <g transform="translate(-258.09 -54.447)">
     <path transform="translate(0 -1947.6)" d="m1129.4 1402.1l36.42 45.084h92.97l-45.093-45.093z" fill="#67422f"/>
     <rect x="1129.4" y="-629.86" width="84.322" height="84.322" ry="1.3878e-16" fill="#8c462d"/>
     <path d="m1135.4-551.5h72.312v-72.344h-72.312v72.344z" clip-path="url(#a)" fill="#d89b86"/>
     <path d="m1258.8-500.46v-92.938l-45.074-36.464v84.328z" fill="#542b1a"/>
    </g>
    <path d="m871.33-599.98l36.42 45.084h92.97l-45.093-45.093z" fill="#67422f"/>
    <rect x="871.3" y="-684.3" width="84.322" height="84.322" ry="1.3878e-16" fill="#8c462d"/>
    <path transform="translate(-258.09 -54.447)" d="m1135.4-551.5h72.312v-72.344h-72.312v72.344z" clip-path="url(#a)" fill="#d89b86"/>
    <path d="m1000.7-554.89v-92.938l-45.074-36.464v84.328z" fill="#542b1a"/>
   </g>
   <g transform="matrix(.96871 .2482 -.94625 .78985 -886.1 -261.9)" clip-path="url(#h)">
    <g transform="translate(-258.09 -54.447)">
     <path transform="translate(0 -1947.6)" d="m1129.4 1402.1l36.42 45.084h92.97l-45.093-45.093z" fill="#67422f"/>
     <rect x="1129.4" y="-629.86" width="84.322" height="84.322" ry="1.3878e-16" fill="#8c462d"/>
     <path d="m1135.4-551.5h72.312v-72.344h-72.312v72.344z" clip-path="url(#a)" fill="#d89b86"/>
     <path d="m1258.8-500.46v-92.938l-45.074-36.464v84.328z" fill="#542b1a"/>
    </g>
    <path d="m871.33-599.98l36.42 45.084h92.97l-45.093-45.093z" fill="#67422f"/>
    <rect x="871.3" y="-684.3" width="84.322" height="84.322" ry="1.3878e-16" fill="#8c462d"/>
    <path transform="translate(-258.09 -54.447)" d="m1135.4-551.5h72.312v-72.344h-72.312v72.344z" clip-path="url(#a)" fill="#d89b86"/>
    <path d="m1000.7-554.89v-92.938l-45.074-36.464v84.328z" fill="#542b1a"/>
   </g>
   <g transform="matrix(.96871 .2482 -.94625 .78985 -432.34 -412.84)" clip-path="url(#g)">
    <g transform="translate(-86.157)">
     <g transform="translate(-258.09 -54.447)">
      <path transform="translate(0 -1947.6)" d="m1129.4 1402.1l36.42 45.084h92.97l-45.093-45.093z" fill="#67422f"/>
      <rect x="1129.4" y="-629.86" width="84.322" height="84.322" ry="1.3878e-16" fill="#8c462d"/>
      <path d="m1135.4-551.5h72.312v-72.344h-72.312v72.344z" clip-path="url(#a)" fill="#d89b86"/>
      <path d="m1258.8-500.46v-92.938l-45.074-36.464v84.328z" fill="#542b1a"/>
     </g>
     <path d="m871.33-599.98l36.42 45.084h92.97l-45.093-45.093z" fill="#67422f"/>
     <rect x="871.3" y="-684.3" width="84.322" height="84.322" ry="1.3878e-16" fill="#8c462d"/>
     <path transform="translate(-258.09 -54.447)" d="m1135.4-551.5h72.312v-72.344h-72.312v72.344z" clip-path="url(#a)" fill="#d89b86"/>
     <path d="m1000.7-554.89v-92.938l-45.074-36.464v84.328z" fill="#542b1a"/>
    </g>
    <g transform="translate(-345)">
     <g transform="translate(-258.09 -54.447)">
      <path transform="translate(0 -1947.6)" d="m1129.4 1402.1l36.42 45.084h92.97l-45.093-45.093z" fill="#67422f"/>
      <rect x="1129.4" y="-629.86" width="84.322" height="84.322" ry="1.3878e-16" fill="#8c462d"/>
      <path d="m1135.4-551.5h72.312v-72.344h-72.312v72.344z" clip-path="url(#a)" fill="#d89b86"/>
      <path d="m1258.8-500.46v-92.938l-45.074-36.464v84.328z" fill="#542b1a"/>
     </g>
     <path d="m871.33-599.98l36.42 45.084h92.97l-45.093-45.093z" fill="#67422f"/>
     <rect x="871.3" y="-684.3" width="84.322" height="84.322" ry="1.3878e-16" fill="#8c462d"/>
     <path transform="translate(-258.09 -54.447)" d="m1135.4-551.5h72.312v-72.344h-72.312v72.344z" clip-path="url(#a)" fill="#d89b86"/>
     <path d="m1000.7-554.89v-92.938l-45.074-36.464v84.328z" fill="#542b1a"/>
    </g>
    <g transform="translate(-215.58)">
     <g transform="translate(-258.09 -54.447)">
      <path transform="translate(0 -1947.6)" d="m1129.4 1402.1l36.42 45.084h92.97l-45.093-45.093z" fill="#67422f"/>
      <rect x="1129.4" y="-629.86" width="84.322" height="84.322" ry="1.3878e-16" fill="#8c462d"/>
      <path d="m1135.4-551.5h72.312v-72.344h-72.312v72.344z" clip-path="url(#a)" fill="#d89b86"/>
      <path d="m1258.8-500.46v-92.938l-45.074-36.464v84.328z" fill="#542b1a"/>
     </g>
     <path d="m871.33-599.98l36.42 45.084h92.97l-45.093-45.093z" fill="#67422f"/>
     <rect x="871.3" y="-684.3" width="84.322" height="84.322" ry="1.3878e-16" fill="#8c462d"/>
     <path transform="translate(-258.09 -54.447)" d="m1135.4-551.5h72.312v-72.344h-72.312v72.344z" clip-path="url(#a)" fill="#d89b86"/>
     <path d="m1000.7-554.89v-92.938l-45.074-36.464v84.328z" fill="#542b1a"/>
    </g>
   </g>
   <path transform="translate(0 -1947.6)" d="m375.19 1490.2l0.71484-35.359 236.71 60.656-0.71875 35.352z" fill="#67422f"/>
   <path transform="translate(0 -1947.6)" d="m642.35 1502.7l-0.70312 35.375 18.546-24.478 0.70377-35.334z" fill="#67422f"/>
   <path transform="translate(0 -1947.6)" d="m696.5 1470.6l19.203-25.371-0.73438 35.383-19.184 25.348z" fill="#67422f"/>
   <path transform="translate(0 -1947.6)" d="m754.97 1434.5l-0.70703 35.352 21.672 9.9297 0.71875-35.356z" fill="#67422f"/>
   <path transform="translate(0 -1947.6)" d="m821.34 1432.1l-0.70313 35.363 14.285 14.609 0.70312-35.363z" fill="#67422f"/>
   <path transform="translate(0 -1947.6)" d="m857.22 1478.7l0.71484-35.367-22.309 3.4258-0.71094 35.352z" fill="#733a24"/>
   <path transform="translate(0 -1947.6)" d="m1084 1254.6l-0.707 35.355-47.113 39.289-18.438-19.375z" fill="#542b1a"/>
   <path transform="translate(0 -1947.6)" d="m723.98 1554.4l-11.328 2.9251 5.3525 5.1438 10.625-3.625z" fill="#9c4f32"/>
   <path transform="translate(0 -1947.6)" d="m738.12 1523.6l-4.25 9.125 15.375 14.125 5.5-13-1-10z" fill="#9c4f32"/>
   <path transform="translate(0 -1947.6)" d="m792.38 1549.4l-24.625 2.75-5.1875 19.812 30.938 6.625z" fill="#9c4f32"/>
   <path transform="translate(0 -1947.6)" d="m733.88 1532.8l3.1758 13.074 15.379 14.125-3.1836-13.086z" fill="#542b1a"/>
   <path transform="translate(0 -1947.6)" d="m749.25 1546.9l3.1797 13.09 5.5039-12.992-3.1797-13.086z" fill="#67422f"/>
   <path transform="translate(0 -1947.6)" d="m762.56 1571.9l3.1797 13.078 30.934 6.6328-3.1758-13.082z" fill="#542b1a"/>
   <path transform="translate(0 -1947.6)" d="m793.5 1578.6l3.1797 13.09-1.125-29.199-3.1758-13.074z" fill="#67422f"/>
   <path transform="translate(0 -1947.6)" d="m718 1562.5l3.1797 13.082 10.625-3.6289-3.1836-13.082z" fill="#542b1a"/>
   <path transform="translate(0 -1947.6)" d="m721.18 1575.6l-9.553-9.018 1.0217-9.2085 5.3438 5.1406z" fill="#67422f"/>
  </g>
 </g>
</svg>
